<svg width="241" height="110" viewBox="0 0 241 110" fill="none" xmlns="http://www.w3.org/2000/svg">
<g filter="url(#filter0_dii_4_2487)">
<rect x="5" y="4" width="221" height="90" rx="30" fill="#F1C433"/>
<rect x="6.5" y="5.5" width="218" height="87" rx="28.5" stroke="#B0322F" stroke-width="3"/>
</g>
<g filter="url(#filter1_i_4_2487)">
<path d="M64.1281 29.75C70.6516 30.5703 73.9133 31.612 73.9133 32.875C73.6268 32.875 73.4836 33.0247 73.4836 33.3242H73.9133L74.8117 32.875C78.9654 37.1068 81.0422 40.5182 81.0422 43.1094L80.593 45.7656V46.2148H81.0422V44.8867H81.4914V48.8906C80.3065 48.8906 79.7141 49.3333 79.7141 50.2188V50.668H80.1437C80.1437 49.7826 80.4432 49.3398 81.0422 49.3398V49.7695C81.0422 50.069 80.8924 50.2188 80.593 50.2188L81.0422 51.1172V51.5664C80.4432 51.5664 80.1437 51.7096 80.1437 51.9961C80.4432 52.569 80.593 53.0182 80.593 53.3438L79.7141 53.7734L80.1437 54.6719C79.8573 55.2448 79.7141 55.6875 79.7141 56L78.8156 55.5703V56C79.1151 56 79.2648 56.1497 79.2648 56.4492C78.1841 57.9336 77.2922 58.6758 76.5891 58.6758L77.0383 59.5742L74.8117 61.3516L73.9133 60.9023L74.3625 61.8008V62.2305C70.6255 64.0143 67.0708 64.9062 63.6984 64.9062H60.1242L54.7922 64.457V61.8008C54.7922 59.431 54.9419 56.3125 55.2414 52.4453C55.2414 52.1458 55.0917 51.9961 54.7922 51.9961L55.2414 48.8906V35.9805L55.6711 31.5273C55.3846 31.5273 55.2414 31.3841 55.2414 31.0977C56.7909 30.4987 59.7531 30.0495 64.1281 29.75ZM65.4758 40.4336V52.8945C65.5669 53.4805 65.8599 53.7734 66.3547 53.7734L67.2531 53.3438C67.774 53.6302 68.3664 53.7734 69.0305 53.7734L69.4797 52.8945V47.1133L69.0305 44.8867H69.4797L69.0305 43.9883V39.5352H66.3547C65.7687 39.6393 65.4758 39.9388 65.4758 40.4336ZM76.5891 42.2109V44.4375H77.4875C77.188 43.9427 77.0383 43.2005 77.0383 42.2109H76.5891ZM79.7141 46.6641V47.5625H80.1437C80.7427 47.5625 81.0422 47.263 81.0422 46.6641H79.7141ZM99.6586 29.75H103.213C105.752 29.75 107.679 30.6419 108.995 32.4258C108.708 32.4258 108.565 32.569 108.565 32.8555H108.995C108.995 32.569 109.144 32.4258 109.444 32.4258C110.928 34.1315 111.67 35.6159 111.67 36.8789L111.221 37.7578H111.67C111.67 37.4583 111.82 37.3086 112.12 37.3086C112.718 42.4128 113.018 46.5729 113.018 49.7891V52.0156C113.018 52.3151 112.868 52.4648 112.569 52.4648C112.569 52.7513 112.718 52.8945 113.018 52.8945C112.276 56.931 111.084 60.0495 109.444 62.25L108.565 61.8008L107.666 62.25C107.666 61.9505 107.517 61.8008 107.217 61.8008V62.25C107.816 62.3411 108.116 62.6406 108.116 63.1484H107.666L106.768 62.6992C106.768 63.2982 106.026 63.8906 104.541 64.4766H99.6586C98.9815 64.4766 98.3826 64.6263 97.8617 64.9258C90.1534 64.9258 86.2992 61.2148 86.2992 53.793C85.9997 53.793 85.85 52.4583 85.85 49.7891V47.1133C85.85 39.0924 87.6273 33.8971 91.182 31.5273C93.6039 30.3424 96.4294 29.75 99.6586 29.75ZM97.432 39.9844V53.3438H97.8617C100.544 53.3438 101.885 52.901 101.885 52.0156C102.172 50.8568 102.315 49.6654 102.315 48.4414V40.4336L100.088 39.9844H97.432ZM130.267 29.75C134.004 36.3646 136.107 39.6719 136.576 39.6719C136.576 39.3594 136.726 38.9102 137.025 38.3242C137.025 38.0117 136.875 37.5625 136.576 36.9766C136.576 36.651 136.726 36.2018 137.025 35.6289C136.726 34.0013 136.576 32.6471 136.576 31.5664V30.2188H139.291C140.866 30.2188 143.418 30.3685 146.947 30.668V31.5664C146.947 37.6992 146.797 46.1172 146.498 56.8203L146.048 57.7188C146.048 58.0182 146.198 58.168 146.498 58.168L146.048 60.4141V63.1289H145.599C145.013 62.8294 144.564 62.6797 144.252 62.6797L144.701 63.5781C143.841 63.5781 140.983 64.0273 136.127 64.9258C131.699 56.8919 129.297 52.8359 128.92 52.7578L128.47 53.6562L128.92 54.5547H128.47L128.92 55.4531V64.4766H128.47C127.91 64.4766 124.304 64.3268 117.65 64.0273V63.5781C118.249 54.1641 118.548 43.793 118.548 32.4648C118.548 31.5664 122.455 30.6615 130.267 29.75ZM122.611 33.8125L122.162 34.7109H123.509C123.509 34.112 123.21 33.8125 122.611 33.8125ZM145.599 39.2227V41.4883C145.69 42.0872 145.99 42.3867 146.498 42.3867V39.2227H145.599ZM145.599 42.8359C145.899 43.3568 146.048 43.9557 146.048 44.6328H146.498V43.2852L145.599 42.8359ZM165.348 29.6523V30.1016C165.934 29.8021 166.384 29.6523 166.696 29.6523L169.86 30.1016C169.86 29.8021 170.016 29.6523 170.329 29.6523V30.5508H170.778V29.6523L171.677 30.1016H176.188V30.5508C176.188 31.5664 176.039 34.1315 175.739 38.2461H164.899V41.4102C170.381 41.0977 173.845 40.9414 175.29 40.9414V47.7383C175.29 49.2357 174.99 49.9844 174.391 49.9844C168.962 49.9844 166.247 49.6849 166.247 49.0859C165.661 49.3854 165.212 49.5352 164.899 49.5352L165.348 50.4336V51.3516C165.348 51.651 165.199 51.8008 164.899 51.8008C165.199 52.2956 165.348 53.0508 165.348 54.0664L167.614 53.5977V54.0664L168.512 53.5977H175.29L176.188 53.1484V54.0664L175.739 54.9648C176.039 54.9648 176.188 55.1146 176.188 55.4141C175.589 55.5052 175.29 55.8047 175.29 56.3125C175.29 56.9245 175.44 57.2305 175.739 57.2305L174.841 64.9062C171.299 64.6068 168.74 64.457 167.165 64.457H162.184L159.47 64.0078C158.975 64.3073 158.22 64.457 157.204 64.457H154.509V60.8438C154.509 60.1667 154.352 59.5612 154.04 59.0273C154.04 58.7279 154.196 58.5781 154.509 58.5781C153.897 49.8802 153.591 40.388 153.591 30.1016H158.571C160.082 30.1016 162.341 29.9518 165.348 29.6523ZM173.493 48.1875V49.5352C174.092 49.5352 174.391 49.2357 174.391 48.6367V48.1875H173.493Z" fill="#B0322F"/>
</g>
<defs>
<filter id="filter0_dii_4_2487" x="0" y="0" width="241" height="110" filterUnits="userSpaceOnUse" color-interpolation-filters="sRGB">
<feFlood flood-opacity="0" result="BackgroundImageFix"/>
<feColorMatrix in="SourceAlpha" type="matrix" values="0 0 0 0 0 0 0 0 0 0 0 0 0 0 0 0 0 0 127 0" result="hardAlpha"/>
<feOffset dx="5" dy="6"/>
<feGaussianBlur stdDeviation="5"/>
<feComposite in2="hardAlpha" operator="out"/>
<feColorMatrix type="matrix" values="0 0 0 0 0 0 0 0 0 0 0 0 0 0 0 0 0 0 0.25 0"/>
<feBlend mode="normal" in2="BackgroundImageFix" result="effect1_dropShadow_4_2487"/>
<feBlend mode="normal" in="SourceGraphic" in2="effect1_dropShadow_4_2487" result="shape"/>
<feColorMatrix in="SourceAlpha" type="matrix" values="0 0 0 0 0 0 0 0 0 0 0 0 0 0 0 0 0 0 127 0" result="hardAlpha"/>
<feOffset dy="-14"/>
<feGaussianBlur stdDeviation="2"/>
<feComposite in2="hardAlpha" operator="arithmetic" k2="-1" k3="1"/>
<feColorMatrix type="matrix" values="0 0 0 0 0.847059 0 0 0 0 0.435294 0 0 0 0 0.168627 0 0 0 1 0"/>
<feBlend mode="normal" in2="shape" result="effect2_innerShadow_4_2487"/>
<feColorMatrix in="SourceAlpha" type="matrix" values="0 0 0 0 0 0 0 0 0 0 0 0 0 0 0 0 0 0 127 0" result="hardAlpha"/>
<feOffset dx="2" dy="20"/>
<feGaussianBlur stdDeviation="2"/>
<feComposite in2="hardAlpha" operator="arithmetic" k2="-1" k3="1"/>
<feColorMatrix type="matrix" values="0 0 0 0 0.937255 0 0 0 0 0.866667 0 0 0 0 0.294118 0 0 0 1 0"/>
<feBlend mode="normal" in2="effect2_innerShadow_4_2487" result="effect3_innerShadow_4_2487"/>
</filter>
<filter id="filter1_i_4_2487" x="54.7922" y="29.6523" width="121.396" height="35.2734" filterUnits="userSpaceOnUse" color-interpolation-filters="sRGB">
<feFlood flood-opacity="0" result="BackgroundImageFix"/>
<feBlend mode="normal" in="SourceGraphic" in2="BackgroundImageFix" result="shape"/>
<feColorMatrix in="SourceAlpha" type="matrix" values="0 0 0 0 0 0 0 0 0 0 0 0 0 0 0 0 0 0 127 0" result="hardAlpha"/>
<feOffset dx="1" dy="4"/>
<feComposite in2="hardAlpha" operator="arithmetic" k2="-1" k3="1"/>
<feColorMatrix type="matrix" values="0 0 0 0 0 0 0 0 0 0 0 0 0 0 0 0 0 0 0.25 0"/>
<feBlend mode="normal" in2="shape" result="effect1_innerShadow_4_2487"/>
</filter>
</defs>
</svg>
