<svg width="102" height="98" viewBox="0 0 102 98" fill="none" xmlns="http://www.w3.org/2000/svg">
<g filter="url(#filter0_dii_1_77)">
<rect y="1" width="90" height="90" rx="30" fill="#F1C433"/>
<rect x="1.5" y="2.5" width="87" height="87" rx="28.5" stroke="#B0322F" stroke-width="3"/>
</g>
<g filter="url(#filter1_i_1_77)">
<path d="M66.5054 37.2517L45.5093 22.0935C43.8693 20.9111 41.9289 20.199 39.9031 20.036C37.8773 19.873 35.8452 20.2655 34.032 21.17C32.2189 22.0744 30.6955 23.4555 29.6308 25.1602C28.5661 26.8649 28.0017 28.8266 28 30.8278V61.1595C27.9969 63.1627 28.5584 65.1274 29.6221 66.835C30.6857 68.5426 32.2099 69.9261 34.0248 70.8314C35.8397 71.7368 37.8742 72.1285 39.9018 71.963C41.9294 71.7974 43.8706 71.0812 45.5093 69.8939L66.5054 54.7356C67.8986 53.729 69.0314 52.4135 69.8123 50.8957C70.5931 49.3779 71 47.7005 71 45.9991C71 44.2977 70.5931 42.6202 69.8123 41.1024C69.0314 39.5846 67.8986 38.2692 66.5054 37.2626V37.2517Z" fill="#B0322F"/>
</g>
<path d="M23.9999 12C18.3999 12.4 11.4999 16 12.9999 23C14.4999 30 27.9999 23 31.4999 19.5C34.9999 16 30.9999 11.5 23.9999 12Z" fill="#F4F0D8" fill-opacity="0.76"/>
<path d="M12.9497 27.0161C10.7031 27.3228 6.56484 29.296 8.50201 31.1958C10.4392 33.0956 15.7668 31.2075 15.9822 29.8659C16.1976 28.5243 14.4165 26.8158 12.9497 27.0161Z" fill="#F4F0D8" fill-opacity="0.76"/>
<defs>
<filter id="filter0_dii_1_77" x="0" y="-3" width="102" height="101" filterUnits="userSpaceOnUse" color-interpolation-filters="sRGB">
<feFlood flood-opacity="0" result="BackgroundImageFix"/>
<feColorMatrix in="SourceAlpha" type="matrix" values="0 0 0 0 0 0 0 0 0 0 0 0 0 0 0 0 0 0 127 0" result="hardAlpha"/>
<feOffset dx="8" dy="3"/>
<feGaussianBlur stdDeviation="2"/>
<feComposite in2="hardAlpha" operator="out"/>
<feColorMatrix type="matrix" values="0 0 0 0 0 0 0 0 0 0 0 0 0 0 0 0 0 0 0.25 0"/>
<feBlend mode="normal" in2="BackgroundImageFix" result="effect1_dropShadow_1_77"/>
<feBlend mode="normal" in="SourceGraphic" in2="effect1_dropShadow_1_77" result="shape"/>
<feColorMatrix in="SourceAlpha" type="matrix" values="0 0 0 0 0 0 0 0 0 0 0 0 0 0 0 0 0 0 127 0" result="hardAlpha"/>
<feOffset dy="-14"/>
<feGaussianBlur stdDeviation="2"/>
<feComposite in2="hardAlpha" operator="arithmetic" k2="-1" k3="1"/>
<feColorMatrix type="matrix" values="0 0 0 0 0.847059 0 0 0 0 0.435294 0 0 0 0 0.168627 0 0 0 1 0"/>
<feBlend mode="normal" in2="shape" result="effect2_innerShadow_1_77"/>
<feColorMatrix in="SourceAlpha" type="matrix" values="0 0 0 0 0 0 0 0 0 0 0 0 0 0 0 0 0 0 127 0" result="hardAlpha"/>
<feOffset dx="2" dy="20"/>
<feGaussianBlur stdDeviation="2"/>
<feComposite in2="hardAlpha" operator="arithmetic" k2="-1" k3="1"/>
<feColorMatrix type="matrix" values="0 0 0 0 0.937255 0 0 0 0 0.866667 0 0 0 0 0.294118 0 0 0 1 0"/>
<feBlend mode="normal" in2="effect2_innerShadow_1_77" result="effect3_innerShadow_1_77"/>
</filter>
<filter id="filter1_i_1_77" x="28" y="20" width="43" height="52" filterUnits="userSpaceOnUse" color-interpolation-filters="sRGB">
<feFlood flood-opacity="0" result="BackgroundImageFix"/>
<feBlend mode="normal" in="SourceGraphic" in2="BackgroundImageFix" result="shape"/>
<feColorMatrix in="SourceAlpha" type="matrix" values="0 0 0 0 0 0 0 0 0 0 0 0 0 0 0 0 0 0 127 0" result="hardAlpha"/>
<feOffset dx="1" dy="4"/>
<feComposite in2="hardAlpha" operator="arithmetic" k2="-1" k3="1"/>
<feColorMatrix type="matrix" values="0 0 0 0 0 0 0 0 0 0 0 0 0 0 0 0 0 0 0.25 0"/>
<feBlend mode="normal" in2="shape" result="effect1_innerShadow_1_77"/>
</filter>
</defs>
</svg>
